<?xml version="1.0" encoding="UTF-8"?>
<svg version="1.1" xmlns="http://www.w3.org/2000/svg" width="339" height="339">
<path d="M0 0 C111.87 0 223.74 0 339 0 C339 111.87 339 223.74 339 339 C227.13 339 115.26 339 0 339 C0 227.13 0 115.26 0 0 Z " fill="#FEFDFE" transform="translate(0,0)"/>
<path d="M0 0 C0.74328552 -0.0065712 1.48657104 -0.0131424 2.25238037 -0.01991272 C4.71732683 -0.03965705 7.18221233 -0.05131088 9.6472168 -0.0612793 C10.4886492 -0.06535482 11.3300816 -0.06943035 12.19701195 -0.07362938 C16.6507073 -0.09449511 21.10437179 -0.10879455 25.55810547 -0.11816406 C30.15836954 -0.12922873 34.75814992 -0.16362756 39.35824299 -0.20333576 C42.89530842 -0.22948159 46.43225827 -0.23785408 49.96941185 -0.24144554 C51.66508437 -0.24631691 53.36075154 -0.25794659 55.05632973 -0.27648354 C57.43117204 -0.30083228 59.80475858 -0.29991831 62.1796875 -0.29296875 C63.2280201 -0.31218384 63.2280201 -0.31218384 64.29753113 -0.33178711 C69.05322608 -0.28112896 71.44187835 0.82150705 74.78393555 4.17700195 C76.26378079 7.13669244 75.94400467 9.81442483 75.97680664 13.11767578 C75.98907288 14.188713 75.98907288 14.188713 76.00158691 15.28138733 C76.02643856 17.6489274 76.04295635 20.01640753 76.05737305 22.3840332 C76.06269672 23.19236792 76.0680204 24.00070263 76.0735054 24.83353233 C76.10023618 29.11215644 76.11961115 33.39075138 76.1340332 37.66943359 C76.15067991 42.08821964 76.19545723 46.50625968 76.24640465 50.92476368 C76.2800656 54.32285923 76.2916093 57.72077746 76.29726028 61.11902428 C76.30397617 62.74773547 76.31920719 64.37643487 76.34315109 66.0049839 C76.37478306 68.2866552 76.37484366 70.56631142 76.36743164 72.84814453 C76.37551849 74.14561111 76.38360535 75.4430777 76.39193726 76.77986145 C75.62909318 81.0421661 74.09488891 82.48523485 70.78393555 85.17700195 C67.84792372 86.64500786 64.87928721 86.34155837 61.65966797 86.35400391 C60.92613602 86.3605751 60.19260406 86.3671463 59.43684387 86.37391663 C57.00436302 86.39366012 54.57194393 86.40531462 52.1394043 86.4152832 C50.89380454 86.42139649 50.89380454 86.42139649 49.62304115 86.42763329 C45.22770053 86.44849871 40.83239117 86.46279825 36.43701172 86.47216797 C31.89727888 86.48323232 27.35803623 86.51763083 22.81847668 86.55733967 C19.32773427 86.58348701 15.83710897 86.59185812 12.34627724 86.59544945 C10.67293297 86.60032046 8.99959411 86.61194915 7.32634544 86.63048744 C4.98263106 86.65483939 2.64018891 86.65392168 0.29638672 86.64697266 C-0.39315094 86.65978271 -1.0826886 86.67259277 -1.79312134 86.68579102 C-5.27824398 86.64818168 -7.15213878 86.21750482 -10.12309265 84.33512878 C-13.72058343 80.62564671 -13.35479857 77.17133126 -13.39306641 72.21459961 C-13.4029232 71.15797371 -13.4029232 71.15797371 -13.41297913 70.08000183 C-13.43267989 67.75035492 -13.44436638 65.42077232 -13.4543457 63.09106445 C-13.45842123 62.29467937 -13.46249676 61.4982943 -13.46669579 60.67777634 C-13.48754102 56.46397919 -13.5018504 52.25021448 -13.51123047 48.03637695 C-13.52230243 43.68611317 -13.55671535 39.33635982 -13.59640217 34.98627663 C-13.62255117 31.63879447 -13.63092066 28.29143441 -13.63451195 24.9438591 C-13.63938099 23.34029053 -13.65100413 21.73672753 -13.66954994 20.13325882 C-13.69391017 17.88782518 -13.69298309 15.6437188 -13.68603516 13.39819336 C-13.6919014 12.12150787 -13.69776764 10.84482239 -13.70381165 9.52944946 C-13.13203393 5.59943244 -11.98528098 3.96676495 -9.21606445 1.17700195 C-6.25716433 -0.30244811 -3.24525564 0.01237824 0 0 Z " fill="#CED3DB" transform="translate(114.216064453125,131.822998046875)"/>
<path d="M0 0 C2.26758375 -0.02807299 4.53501238 -0.07581024 6.80175781 -0.14355469 C28.06908884 -0.7763452 28.06908884 -0.7763452 34.53271484 4.98510742 C36.56958008 7.38330078 36.56958008 7.38330078 38.16162109 9.64526367 C39.09439801 10.73266635 40.03121505 11.81663233 40.97412109 12.89526367 C41.69599609 13.80276367 42.41787109 14.71026367 43.16162109 15.64526367 C46.09327437 18.65264231 49.11330894 21.55669119 52.14990234 24.45776367 C53.5915582 25.8533392 55.03295906 27.2491782 56.47412109 28.64526367 C57.5849707 29.69327148 57.5849707 29.69327148 58.71826172 30.76245117 C59.41757813 31.4456543 60.11689453 32.12885742 60.83740234 32.83276367 C61.47589111 33.44506836 62.11437988 34.05737305 62.7722168 34.68823242 C64.53336721 37.16888287 64.50806506 38.66590813 64.16162109 41.64526367 C62.21224297 43.59464179 59.24543576 42.77885094 56.64982605 42.79190063 C55.24329521 42.79122086 55.24329521 42.79122086 53.80834961 42.79052734 C52.82630554 42.79388596 51.84426147 42.79724457 50.8324585 42.80070496 C47.56846877 42.81024641 44.30453017 42.81215965 41.04052734 42.81323242 C38.78230264 42.81644273 36.52407814 42.81980662 34.26585388 42.82331848 C29.52529416 42.82931772 24.7847527 42.83115756 20.04418945 42.83056641 C13.95620025 42.83046473 7.86832752 42.84411948 1.78036594 42.86133862 C-2.88548831 42.87243236 -7.55131416 42.87448643 -12.21718025 42.87395668 C-14.4623562 42.87514067 -16.7075328 42.87958573 -18.95269585 42.88728905 C-22.08711893 42.89703631 -25.22128609 42.89423182 -28.35571289 42.88818359 C-29.29137589 42.8938031 -30.22703888 42.89942261 -31.1910553 42.9052124 C-32.46775589 42.89892067 -32.46775589 42.89892067 -33.77024841 42.89250183 C-34.8827479 42.89331898 -34.8827479 42.89331898 -36.01772213 42.89415264 C-37.83837891 42.64526367 -37.83837891 42.64526367 -39.83837891 40.64526367 C-41.21623294 31.25609419 -41.69774855 18.68031195 -36.45947266 10.48901367 C-26.4580467 -0.88610211 -14.04808359 0.12475915 0 0 Z " fill="#951BBE" transform="translate(85.83837890625,78.354736328125)"/>
<path d="M0 0 C0.75499786 0.22062607 1.50999573 0.44125214 2.28787231 0.66856384 C2.33413637 13.28123611 2.36971127 25.89388832 2.39149666 38.50662804 C2.40195056 44.36272038 2.41613899 50.21875483 2.43875122 56.07481384 C2.46042241 61.72226661 2.47242883 67.36966357 2.4776268 73.01715469 C2.48133287 75.17581181 2.48856951 77.33446575 2.49933243 79.49309921 C2.51377129 82.50787295 2.51585346 85.52241365 2.5149231 88.53721619 C2.52211365 89.43704727 2.5293042 90.33687836 2.53671265 91.26397705 C2.51597664 97.44045952 2.51597664 97.44045952 0.28787231 99.66856384 C-3.35682624 100.15436036 -7.03879516 100.03898933 -10.71212769 100.04356384 C-11.71630737 100.06805603 -12.72048706 100.09254822 -13.75509644 100.11778259 C-21.31813679 100.14713463 -28.75873331 99.15951988 -34.62814331 93.97666931 C-40.72649015 87.48102966 -42.18605388 80.70391151 -42.25119019 72.07872009 C-42.26972549 70.72368629 -42.26972549 70.72368629 -42.28863525 69.34127808 C-42.30811842 67.43945237 -42.31941887 65.53752705 -42.32296753 63.63560486 C-42.33707498 60.74187528 -42.4045062 57.85244441 -42.47384644 54.95957947 C-42.48624468 53.10347871 -42.49546441 51.24735343 -42.50119019 49.39122009 C-42.52790802 48.53577103 -42.55462585 47.68032196 -42.58215332 46.7989502 C-42.51496298 40.79746297 -40.89188856 37.84727207 -36.70788574 33.59289551 C-36.04928558 32.95786606 -35.39068542 32.32283661 -34.71212769 31.66856384 C-33.4915528 30.38418354 -32.27393693 29.09698475 -31.05929565 27.80699158 C-27.65522673 24.2976872 -24.22479127 20.81432917 -20.78683472 17.33824158 C-19.31053065 15.84014523 -17.84053641 14.3358066 -16.37667847 12.82554626 C-14.25010606 10.63241484 -12.10480507 8.45930969 -9.95431519 6.28965759 C-9.30212006 5.60963181 -8.64992493 4.92960602 -7.97796631 4.22897339 C-7.05142746 3.3065963 -7.05142746 3.3065963 -6.10617065 2.36558533 C-5.56991058 1.81901779 -5.03365051 1.27245026 -4.48114014 0.70932007 C-2.71212769 -0.33143616 -2.71212769 -0.33143616 0 0 Z " fill="#951BC0" transform="translate(87.71212768554688,171.33143615722656)"/>
<path d="M0 0 C0.67007584 -0.00350464 1.34015167 -0.00700928 2.03053284 -0.01062012 C4.25027765 -0.01943826 6.46970495 -0.01358818 8.68945312 -0.00683594 C10.22880108 -0.00818257 11.76814862 -0.01012308 13.30749512 -0.01263428 C16.53560429 -0.01558565 19.76360288 -0.01128755 22.99169922 -0.00195312 C27.13476107 0.00944149 31.27756381 0.00288208 35.42061615 -0.00909805 C38.59985312 -0.01631635 41.77902841 -0.01402888 44.95826721 -0.00884247 C46.48613007 -0.00750588 48.01399848 -0.009154 49.54185486 -0.01380157 C51.67519012 -0.0188664 53.80810257 -0.01115763 55.94140625 0 C57.76436218 0.00238678 57.76436218 0.00238678 59.62414551 0.00482178 C62.47070312 0.25878906 62.47070312 0.25878906 64.47070312 2.25878906 C64.71121216 4.43545532 64.71121216 4.43545532 64.69775391 7.16748047 C64.69760284 8.18838776 64.69745178 9.20929504 64.69729614 10.26113892 C64.68697357 11.36637909 64.676651 12.47161926 64.66601562 13.61035156 C64.66318573 14.73951996 64.66035583 15.86868835 64.65744019 17.03207397 C64.64621775 20.64941877 64.62110934 24.26651872 64.59570312 27.88378906 C64.585676 30.33170216 64.57654969 32.77961913 64.56835938 35.22753906 C64.54627169 41.2380397 64.51277387 47.24839689 64.47070312 53.25878906 C63.35417671 52.31446154 62.23945548 51.36799942 61.12548828 50.4206543 C60.50453278 49.89382553 59.88357727 49.36699677 59.24380493 48.82420349 C56.14702912 46.09015995 53.44333168 42.98472148 50.68164062 39.91894531 C48.5894532 37.99914487 48.5894532 37.99914487 45.90429688 38.27441406 C43.06901781 39.42126851 42.00869631 40.53559695 40.15820312 42.94628906 C36.71458469 47.15599883 32.90559617 50.16095367 28.47070312 53.25878906 C28.07278564 52.83992432 27.67486816 52.42105957 27.26489258 51.98950195 C25.448326 50.08956064 23.6161099 48.20546596 21.78320312 46.32128906 C21.15736328 45.66193359 20.53152344 45.00257813 19.88671875 44.32324219 C18.96342773 43.38061523 18.96342773 43.38061523 18.02148438 42.41894531 C17.46114502 41.83765869 16.90080566 41.25637207 16.32348633 40.6574707 C13.95914485 38.87260942 12.43656494 38.34777347 9.47070312 38.25878906 C7.2401084 39.67809544 7.2401084 39.67809544 5.29882812 41.87988281 C4.55246094 42.65009766 3.80609375 43.4203125 3.03710938 44.21386719 C2.27269531 45.03306641 1.50828125 45.85226563 0.72070312 46.69628906 C-0.8140414 48.3007947 -2.35040808 49.90375084 -3.88867188 51.50488281 C-4.56381836 52.22345459 -5.23896484 52.94202637 -5.93457031 53.68237305 C-7.52929688 55.25878906 -7.52929688 55.25878906 -8.52929688 55.25878906 C-8.57987652 47.74742498 -8.61497945 40.23610457 -8.63916016 32.72460938 C-8.64923726 30.16762654 -8.66289913 27.61065527 -8.68017578 25.05371094 C-8.70434905 21.38506214 -8.71576273 17.71656527 -8.72460938 14.04785156 C-8.73493195 12.89886383 -8.74525452 11.7498761 -8.75588989 10.56607056 C-8.75604095 9.50512177 -8.75619202 8.44417297 -8.75634766 7.35107422 C-8.76078888 6.41397614 -8.7652301 5.47687805 -8.76980591 4.51138306 C-8.20714941 -0.7584259 -4.3431151 0.0056864 0 0 Z " fill="#FDFEFE" transform="translate(117.529296875,138.7412109375)"/>
<path d="M0 0 C0.8816835 -0.0033284 1.763367 -0.0066568 2.67176819 -0.01008606 C4.54053219 -0.01515908 6.40930529 -0.01749427 8.27807617 -0.01733398 C11.14451969 -0.01951933 14.01057785 -0.0376678 16.87695312 -0.05664062 C18.68880076 -0.05957464 20.50065023 -0.06155938 22.3125 -0.0625 C23.60473732 -0.07327827 23.60473732 -0.07327827 24.92308044 -0.08427429 C30.99383465 -0.06085285 30.99383465 -0.06085285 33.22265625 2.16796875 C33.78363625 5.68452355 33.73225306 9.23695409 33.78515625 12.79296875 C33.85959961 14.25283203 33.85959961 14.25283203 33.93554688 15.7421875 C33.94908203 16.69996094 33.96261719 17.65773437 33.9765625 18.64453125 C34.00049072 19.51158691 34.02441895 20.37864258 34.04907227 21.27197266 C32.73023887 25.89353889 29.50609979 28.76043152 26.22265625 32.16796875 C25.63136429 32.79620544 25.04007233 33.42444214 24.43086243 34.07171631 C20.58606994 38.1268385 16.65324729 42.09734965 12.72460938 46.07104492 C11.29680845 47.52064309 9.8753188 48.97648263 8.45996094 50.43823242 C6.4028848 52.56187217 4.32709682 54.66545941 2.24609375 56.765625 C1.30061172 57.75285301 1.30061172 57.75285301 0.33602905 58.76002502 C-0.56047867 59.65237099 -0.56047867 59.65237099 -1.47509766 60.56274414 C-1.99359283 61.09154678 -2.51208801 61.62034943 -3.04629517 62.16517639 C-4.77734375 63.16796875 -4.77734375 63.16796875 -7.48373413 62.83079529 C-8.61907089 62.50269615 -8.61907089 62.50269615 -9.77734375 62.16796875 C-9.80047139 54.23183088 -9.81826098 46.29570699 -9.82915592 38.3595438 C-9.83438383 34.67482377 -9.8414798 30.99012672 -9.8527832 27.30541992 C-9.86361537 23.75226044 -9.86962128 20.19912312 -9.87222099 16.64594841 C-9.87407465 15.28751209 -9.87769413 13.92907704 -9.88307381 12.5706501 C-9.8902885 10.67414652 -9.89075184 8.77762082 -9.89086914 6.88110352 C-9.89308975 5.79966568 -9.89531036 4.71822784 -9.89759827 3.60401917 C-9.62990009 -1.8188645 -4.24138053 0.00546592 0 0 Z " fill="#9419C0" transform="translate(56.77734375,129.83203125)"/>
<path d="M0 0 C1.02931641 -0.04125 2.05863281 -0.0825 3.11914062 -0.125 C8.01406181 -0.17517216 11.73276761 -0.16944189 15.61328125 3.03125 C16.71625841 4.15266774 17.7828608 5.31089131 18.8125 6.5 C19.33303955 7.08885986 19.8535791 7.67771973 20.38989258 8.28442383 C21.53018265 9.59217027 22.66173453 10.90756881 23.78613281 12.22900391 C26.17458287 14.90579456 28.70494917 17.41644176 31.2734375 19.91796875 C31.75363342 20.3878421 32.23382935 20.85771545 32.72857666 21.34182739 C34.72029591 23.28862033 36.71435038 25.23264108 38.72216797 27.1628418 C40.20675748 28.59296623 41.67833726 30.03547408 43.1484375 31.48046875 C44.02032715 32.32504639 44.8922168 33.16962402 45.79052734 34.03979492 C47.92586105 36.63793036 48.49722725 38.19406623 48.8125 41.5 C45.42128758 43.76080828 44.24676904 43.75246265 40.27124023 43.75878906 C38.56948891 43.76824554 38.56948891 43.76824554 36.83335876 43.77789307 C35.60831131 43.7738446 34.38326385 43.76979614 33.12109375 43.765625 C31.23681419 43.76849518 31.23681419 43.76849518 29.31446838 43.77142334 C26.65717831 43.77278533 24.00025528 43.77008981 21.34301758 43.76074219 C17.93422227 43.74933608 14.52574149 43.75591677 11.11695766 43.76788712 C7.86832497 43.77684251 4.61973054 43.77057717 1.37109375 43.765625 C-0.46951378 43.77169769 -0.46951378 43.77169769 -2.3473053 43.77789307 C-3.47865402 43.77158875 -4.61000275 43.76528442 -5.77563477 43.75878906 C-6.7747438 43.75719788 -7.77385284 43.75560669 -8.80323792 43.75396729 C-11.1875 43.5 -11.1875 43.5 -13.1875 41.5 C-13.38748324 38.58250865 -13.46724887 35.76198071 -13.453125 32.84375 C-13.45503845 31.98567749 -13.4569519 31.12760498 -13.45892334 30.24353027 C-13.46028544 28.42781278 -13.45658728 26.61208555 -13.44824219 24.79638672 C-13.43754291 22.0111715 -13.44813653 19.22660132 -13.4609375 16.44140625 C-13.45961591 14.67968607 -13.45705353 12.91796629 -13.453125 11.15625 C-13.45717346 10.31976929 -13.46122192 9.48328857 -13.46539307 8.62145996 C-13.38483049 -1.2720367 -8.35043165 0.08211857 0 0 Z " fill="#941EBE" transform="translate(112.1875,227.5)"/>
<path d="M0 0 C10.93496471 -0.02312297 21.86992366 -0.04091485 32.8049078 -0.05181217 C37.88191018 -0.0570411 42.95889589 -0.06413892 48.03588867 -0.07543945 C52.93120552 -0.08626799 57.82650629 -0.09227676 62.72183418 -0.09487724 C64.59382951 -0.09673155 66.46582391 -0.10035228 68.33781242 -0.10573006 C70.95040699 -0.11294004 73.56293427 -0.11399096 76.17553711 -0.11352539 C76.95740387 -0.11712067 77.73927063 -0.12071594 78.54483032 -0.12442017 C83.88594784 -0.11405216 83.88594784 -0.11405216 85 1 C85.1875 3.4375 85.1875 3.4375 85 6 C82.16152059 8.83847941 79.40180291 8.3029049 75.6003418 8.30639648 C74.83754913 8.31472 74.07475647 8.32304352 73.28884888 8.33161926 C70.75892071 8.35577837 68.22925016 8.36449921 65.69921875 8.37109375 C63.94285503 8.38005683 62.18649211 8.38917862 60.43013 8.39845276 C56.74384707 8.41496223 53.05765516 8.4226462 49.37133789 8.42553711 C44.64985747 8.43091766 39.92923398 8.46857516 35.20799541 8.51428127 C31.5782612 8.5440424 27.94873334 8.55126048 24.31888771 8.55226326 C22.57855118 8.55646882 20.83821421 8.56891667 19.09799767 8.58978081 C16.66064157 8.61667202 14.22527105 8.61187757 11.7878418 8.59936523 C11.07025192 8.61419952 10.35266205 8.62903381 9.61332703 8.64431763 C5.6053567 8.58579764 4.11927973 8.1013371 1.01325989 5.46253967 C0.34888412 4.64990158 -0.31549164 3.83726349 -1 3 C-0.67 2.01 -0.34 1.02 0 0 Z " fill="#9F28C6" transform="translate(132,80)"/>
<path d="M0 0 C1.04185204 0.00067978 1.04185204 0.00067978 2.10475159 0.00137329 C2.83320282 -0.00198532 3.56165405 -0.00534393 4.31217957 -0.00880432 C6.73206769 -0.01834164 9.15188683 -0.02025882 11.5717926 -0.02133179 C13.24709095 -0.02454245 14.92238902 -0.02790637 16.59768677 -0.03141785 C20.11420848 -0.03741609 23.63070559 -0.03925704 27.14723206 -0.03866577 C31.66134989 -0.03856411 36.17531057 -0.05221715 40.68939114 -0.06943798 C44.15084564 -0.08053674 47.6122619 -0.08258564 51.07373238 -0.08205605 C52.73836369 -0.08323935 54.4029959 -0.08768059 56.06760979 -0.09538841 C58.3926035 -0.10514564 60.71725277 -0.10232737 63.04225159 -0.09628296 C63.73479538 -0.10190247 64.42733917 -0.10752197 65.14086914 -0.11331177 C69.90988304 -0.08167885 69.90988304 -0.08167885 72.13819885 2.14663696 C71.5826433 6.70219252 71.5826433 6.70219252 70.13819885 8.14663696 C67.79566104 8.24156418 65.48273781 8.27223487 63.13990784 8.26016235 C62.04241211 8.26038139 62.04241211 8.26038139 60.92274475 8.26060486 C58.49323102 8.25990563 56.06379302 8.25211281 53.6342926 8.24429321 C51.95420371 8.24242907 50.27411428 8.24100515 48.59402466 8.24000549 C44.16346242 8.23618004 39.73293276 8.22634952 35.30238342 8.21530151 C30.78476909 8.20508799 26.26714952 8.200508 21.74952698 8.19546509 C12.87906993 8.18472727 4.00863709 8.16765052 -4.86180115 8.14663696 C-5.24243335 5.82055126 -5.57450059 3.48608432 -5.86180115 1.14663696 C-4.20568132 -0.50948286 -2.21324774 0.01499409 0 0 Z " fill="#D1D7DE" transform="translate(207.86180114746094,129.85336303710938)"/>
<path d="M0 0 C9.72692737 -0.06945668 19.45379591 -0.12278917 29.1809206 -0.15543652 C33.69744426 -0.17110424 38.21379848 -0.19236257 42.73022461 -0.22631836 C47.08740597 -0.25887255 51.44442418 -0.27684468 55.80171776 -0.28463173 C57.46554318 -0.29018235 59.1293595 -0.30102118 60.79311562 -0.31719017 C63.12049404 -0.33891251 65.44719501 -0.34196917 67.7746582 -0.34057617 C68.46517776 -0.351362 69.15569733 -0.36214783 69.86714172 -0.3732605 C72.74091299 -0.35460231 74.58221233 -0.29487825 76.96720886 1.38847351 C78 3 78 3 77.75 5.125 C77 7 77 7 76 8 C73.75178468 8.11549974 71.49989319 8.15972356 69.2487793 8.17700195 C68.19018204 8.18685875 68.19018204 8.18685875 67.11019897 8.19691467 C64.76487127 8.21669292 62.41960775 8.22832075 60.07421875 8.23828125 C59.27475138 8.24235678 58.475284 8.2464323 57.65159035 8.25063133 C53.41950359 8.27151226 49.18744944 8.28580467 44.95532227 8.29516602 C40.58024118 8.30622958 36.20566885 8.3406226 31.83076763 8.38033772 C28.47045436 8.40646757 25.11026288 8.41485463 21.74985695 8.41844749 C20.13708882 8.42332359 18.5243265 8.43496668 16.91165733 8.45348549 C14.6538287 8.47779917 12.39732339 8.47692686 10.1394043 8.4699707 C8.85446579 8.47583694 7.56952728 8.48170319 6.24565125 8.48774719 C3 8 3 8 0.49128723 6.22062683 C-1 4 -1 4 -0.75 1.75 C-0.5025 1.1725 -0.255 0.595 0 0 Z " fill="#9F29C2" transform="translate(148,96)"/>
<path d="M0 0 C23.76 0 47.52 0 72 0 C72.99 2.475 72.99 2.475 74 5 C72.89498901 6.47375488 72.89498901 6.47375488 71 8 C68.16726685 8.39440918 68.16726685 8.39440918 64.68017578 8.41992188 C63.3751712 8.43583374 62.07016663 8.45174561 60.72561646 8.46813965 C59.29884902 8.469407 57.87208026 8.46958371 56.4453125 8.46875 C54.98183906 8.47585114 53.51836841 8.48355007 52.05490112 8.49182129 C48.98655462 8.50527255 45.91846541 8.50683256 42.85009766 8.50097656 C38.92331062 8.49508567 34.99776224 8.52564139 31.07121468 8.56609344 C28.04793683 8.591983 25.02495651 8.5948467 22.0015831 8.59120178 C20.55431892 8.59289251 19.10704092 8.60253077 17.65988541 8.62034607 C15.63291558 8.64254931 13.60565367 8.62961883 11.57861328 8.61523438 C10.42628204 8.61728882 9.27395081 8.61934326 8.08670044 8.62145996 C4.0446541 7.8076557 2.52070487 6.19674004 0 3 C0 2.01 0 1.02 0 0 Z " fill="#9B23BF" transform="translate(163,113)"/>
<path d="M0 0 C9.09230801 -0.04628063 18.18457566 -0.08184737 27.27697563 -0.10362434 C31.4986575 -0.11407464 35.72025895 -0.12825645 39.94189453 -0.15087891 C44.01377277 -0.17256303 48.08557353 -0.18455923 52.15750504 -0.18975449 C53.71329087 -0.19345824 55.26907232 -0.20069046 56.82482529 -0.21146011 C58.99903374 -0.22591638 61.17291942 -0.22798044 63.34716797 -0.22705078 C64.58626923 -0.231492 65.82537048 -0.23593323 67.10202026 -0.24050903 C70 0 70 0 72 2 C71.44444444 6.55555556 71.44444444 6.55555556 70 8 C67.96618942 8.11516867 65.92835265 8.15968832 63.89135742 8.17700195 C62.58297409 8.18983719 61.27459076 8.20267242 59.92655945 8.21589661 C58.48619971 8.22406386 57.04583572 8.23150762 55.60546875 8.23828125 C54.88322931 8.24235678 54.16098988 8.2464323 53.4168644 8.25063133 C49.59326079 8.27151136 45.76969326 8.2858039 41.94604492 8.29516602 C37.99467817 8.30622688 34.04387515 8.34061666 30.09270763 8.38033772 C27.05665537 8.40647801 24.02073781 8.41485556 20.9845829 8.41844749 C19.52811188 8.42332125 18.0716472 8.43495782 16.61528587 8.45348549 C14.57593701 8.4778142 12.53631512 8.47449831 10.49682617 8.4699707 C9.33624191 8.47583694 8.17565765 8.48170319 6.97990417 8.48774719 C4 8 4 8 1.59394836 6.22062683 C0 4 0 4 0 0 Z " fill="#D7DCE4" transform="translate(141,229)"/>
<path d="M0 0 C8.6838625 -0.06947174 17.36762954 -0.1227967 26.05170918 -0.15543652 C30.08397033 -0.17110102 34.11604153 -0.1923533 38.14819336 -0.22631836 C42.0385392 -0.25888429 45.9287022 -0.27684711 49.81917381 -0.28463173 C51.30437283 -0.29018026 52.7895617 -0.30101511 54.274683 -0.31719017 C56.35302072 -0.33892851 58.43060032 -0.34196856 60.5090332 -0.34057617 C61.69261917 -0.34723801 62.87620514 -0.35389984 64.09565735 -0.36076355 C67 0 67 0 68.92131042 1.38847351 C70 3 70 3 69.75 5.125 C69 7 69 7 68 8 C66.02745561 8.11506081 64.05077257 8.15967679 62.07495117 8.17700195 C60.17243843 8.19625481 60.17243843 8.19625481 58.23149109 8.21589661 C56.83532093 8.22406395 55.43914637 8.23150769 54.04296875 8.23828125 C53.34279444 8.24235678 52.64262012 8.2464323 51.92122841 8.25063133 C48.21433428 8.27151106 44.50747737 8.28580365 40.80053711 8.29516602 C36.97023058 8.306226 33.14050575 8.34061472 29.31040478 8.38033772 C26.36699847 8.40648142 23.42373109 8.41485586 20.48021889 8.41844749 C19.06840403 8.42332049 17.65659568 8.43495493 16.24489403 8.45348549 C14.26781562 8.47782099 12.29045541 8.47449763 10.31323242 8.4699707 C8.62565071 8.47877007 8.62565071 8.47877007 6.90397644 8.48774719 C3.31755029 7.88537685 2.11458611 6.92490311 0 4 C0 2.68 0 1.36 0 0 Z " fill="#9D1EC2" transform="translate(157,245)"/>
<path d="M0 0 C6.79928419 -0.0505894 13.5985201 -0.08568667 20.39794922 -0.10986328 C22.71242079 -0.11993892 25.02687959 -0.13359975 27.34130859 -0.15087891 C30.66246693 -0.17505865 33.9834574 -0.1864673 37.3046875 -0.1953125 C38.34430634 -0.20563507 39.38392517 -0.21595764 40.45504761 -0.22659302 C41.41589264 -0.22674408 42.37673767 -0.22689514 43.36669922 -0.22705078 C44.63910965 -0.23371262 44.63910965 -0.23371262 45.93722534 -0.24050903 C48 0 48 0 50 2 C50.125 4.625 50.125 4.625 50 7 C47.61928218 8.19035891 46.1468262 8.13298146 43.49023438 8.14526367 C42.55586548 8.15164352 41.62149658 8.15802338 40.65881348 8.16459656 C39.64734253 8.16570938 38.63587158 8.1668222 37.59375 8.16796875 C36.55810913 8.17129715 35.52246826 8.17462555 34.45544434 8.17805481 C32.26310674 8.18312336 30.07076142 8.18546316 27.87841797 8.18530273 C24.51386912 8.18749098 21.14964711 8.20565242 17.78515625 8.22460938 C15.65885529 8.22754288 13.53255277 8.22952796 11.40625 8.23046875 C9.88904358 8.24124702 9.88904358 8.24124702 8.34118652 8.25224304 C7.40681763 8.24916641 6.47244873 8.24608978 5.50976562 8.24291992 C4.68528931 8.24434494 3.86081299 8.24576996 3.01135254 8.24723816 C1 8 1 8 -1 6 C-0.625 2.875 -0.625 2.875 0 0 Z " fill="#CFD5DD" transform="translate(248,113)"/>
<path d="M0 0 C5.92648574 -0.07409532 11.85270253 -0.12857616 17.77954102 -0.16479492 C19.79619034 -0.17989179 21.81280679 -0.20037115 23.8293457 -0.22631836 C26.72615671 -0.26266211 29.62253406 -0.2797172 32.51953125 -0.29296875 C33.42274612 -0.30845261 34.325961 -0.32393646 35.25654602 -0.33988953 C36.5175135 -0.34022942 36.5175135 -0.34022942 37.80395508 -0.34057617 C38.54341873 -0.34723801 39.28288239 -0.35389984 40.04475403 -0.36076355 C42.55936833 0.10320937 43.46577715 0.98977883 45 3 C44.875 5.125 44.875 5.125 44 7 C41.2815104 7.9061632 39.70429744 8.12630299 36.91162109 8.12939453 C36.09422455 8.13254669 35.276828 8.13569885 34.43466187 8.13894653 C33.55645782 8.1369223 32.67825378 8.13489807 31.7734375 8.1328125 C30.87001617 8.13376923 29.96659485 8.13472595 29.03579712 8.13571167 C27.12770518 8.13639192 25.21961092 8.13454845 23.31152344 8.13037109 C20.37950495 8.12500824 17.44763879 8.13032771 14.515625 8.13671875 C12.66406216 8.13605819 10.81249942 8.13477747 8.9609375 8.1328125 C8.078685 8.13483673 7.1964325 8.13686096 6.28744507 8.13894653 C0.1149583 8.1149583 0.1149583 8.1149583 -1 7 C-0.71269945 4.66055264 -0.38063221 2.3260857 0 0 Z " fill="#D1D6DE" transform="translate(275,96)"/>
<path d="M0 0 C1.40166664 -0.00956978 1.40166664 -0.00956978 2.83164978 -0.01933289 C3.84828201 -0.02044571 4.86491425 -0.02155853 5.91235352 -0.02270508 C6.94940933 -0.02603348 7.98646515 -0.02936188 9.0549469 -0.03279114 C11.25326085 -0.03786493 13.45158254 -0.04019932 15.64990234 -0.04003906 C19.02332177 -0.04222471 22.39641394 -0.06037347 25.76977539 -0.0793457 C27.90063364 -0.08227962 30.03149345 -0.08426443 32.16235352 -0.08520508 C33.17696152 -0.09239059 34.19156952 -0.09957611 35.23692322 -0.10697937 C36.17451981 -0.10390274 37.11211639 -0.10082611 38.078125 -0.09765625 C38.90561752 -0.09908127 39.73311005 -0.10050629 40.5856781 -0.10197449 C42.60375977 0.14526367 42.60375977 0.14526367 44.60375977 2.14526367 C44.22875977 4.77026367 44.22875977 4.77026367 43.60375977 7.14526367 C36.78614082 7.17053258 29.96853387 7.18809612 23.15087891 7.20019531 C20.82958525 7.20523701 18.50829479 7.21207019 16.18701172 7.22070312 C12.85847182 7.23277592 9.52997374 7.23849346 6.20141602 7.24291992 C4.63424583 7.25066185 4.63424583 7.25066185 3.03541565 7.25856018 C2.07449509 7.25863571 1.11357452 7.25871124 0.12353516 7.25878906 C-0.72695908 7.26100967 -1.57745331 7.26323029 -2.45372009 7.26551819 C-4.39624023 7.14526367 -4.39624023 7.14526367 -5.39624023 6.14526367 C-5.52124023 3.64526367 -5.52124023 3.64526367 -5.39624023 1.14526367 C-3.81265419 -0.43832237 -2.19633663 0.01012704 0 0 Z " fill="#D0D5DD" transform="translate(207.396240234375,146.854736328125)"/>
<path d="M0 0 C5.94481181 -0.04934399 11.88950509 -0.08569282 17.83447266 -0.10986328 C19.85793127 -0.11993671 21.88137528 -0.13359595 23.90478516 -0.15087891 C26.80895589 -0.17506847 29.71293461 -0.18646949 32.6171875 -0.1953125 C33.52556366 -0.20563507 34.43393982 -0.21595764 35.36984253 -0.22659302 C36.21056305 -0.22674408 37.05128357 -0.22689514 37.91748047 -0.22705078 C39.03000687 -0.23371262 39.03000687 -0.23371262 40.16500854 -0.24050903 C42 0 42 0 44 2 C43.44444444 6.55555556 43.44444444 6.55555556 42 8 C36.65791892 8.29250375 31.31319055 8.31409821 25.96386719 8.35009766 C24.16165229 8.36663471 22.35950237 8.39389522 20.55761719 8.43212891 C17.95994015 8.48698253 15.36380374 8.508786 12.765625 8.5234375 C11.96336487 8.54610687 11.16110474 8.56877625 10.33453369 8.59213257 C5.93514582 8.57557328 4.47889274 8.39795204 0.95214844 5.46728516 C0.30793945 4.65308105 -0.33626953 3.83887695 -1 3 C-0.67 2.01 -0.34 1.02 0 0 Z " fill="#A127C1" transform="translate(173,262)"/>
<path d="M0 0 C0.79289932 -0.0033284 1.58579865 -0.0066568 2.40272522 -0.01008606 C4.08317483 -0.01515851 5.76363454 -0.01749429 7.4440918 -0.01733398 C10.02083884 -0.01951911 12.59715701 -0.03766734 15.17382812 -0.05664062 C16.80338395 -0.0595747 18.43294181 -0.0615594 20.0625 -0.0625 C20.83649643 -0.06968552 21.61049286 -0.07687103 22.40794373 -0.08427429 C27.86883372 -0.06085378 27.86883372 -0.06085378 30.09765625 2.16796875 C29.54210069 6.72352431 29.54210069 6.72352431 28.09765625 8.16796875 C25.45479351 8.28133501 22.83904169 8.33214636 20.1953125 8.3359375 C19.40241318 8.3392659 18.60951385 8.3425943 17.79258728 8.34602356 C16.11213767 8.35109601 14.43167796 8.35343179 12.7512207 8.35327148 C10.17447366 8.35545661 7.59815549 8.37360484 5.02148438 8.39257812 C3.39192855 8.3955122 1.76237069 8.3974969 0.1328125 8.3984375 C-1.02818214 8.40921577 -1.02818214 8.40921577 -2.21263123 8.42021179 C-7.67352122 8.39679128 -7.67352122 8.39679128 -9.90234375 6.16796875 C-9.04328183 -0.87633896 -6.34569987 0.00909981 0 0 Z " fill="#D4DBE2" transform="translate(241.90234375,195.83203125)"/>
<path d="M0 0 C1.22264305 -0.0049926 1.22264305 -0.0049926 2.46998596 -0.01008606 C4.19751418 -0.01515867 5.92505223 -0.01749428 7.65258789 -0.01733398 C10.3017587 -0.01951917 12.95051241 -0.03766746 15.59960938 -0.05664062 C17.27473815 -0.05957469 18.94986892 -0.0615594 20.625 -0.0625 C21.42087021 -0.06968552 22.21674042 -0.07687103 23.03672791 -0.08427429 C28.65008398 -0.06085352 28.65008398 -0.06085352 30.87890625 2.16796875 C30.50390625 4.79296875 30.50390625 4.79296875 29.87890625 7.16796875 C24.48543637 7.19261724 19.091999 7.21080406 13.69848633 7.22290039 C11.8622175 7.22794106 10.02595271 7.23477352 8.18969727 7.2434082 C5.55614224 7.25548547 2.92264009 7.26119956 0.2890625 7.265625 C-0.95000099 7.27336693 -0.95000099 7.27336693 -2.21409607 7.28126526 C-4.18345743 7.2814608 -6.15270989 7.23001027 -8.12109375 7.16796875 C-9.12109375 6.16796875 -9.12109375 6.16796875 -9.24609375 3.66796875 C-8.97977049 -1.65849646 -4.22557018 0.0058934 0 0 Z " fill="#D0D6DE" transform="translate(211.12109375,179.83203125)"/>
<path d="M0 0 C3.2292795 0.26910663 4.18532256 0.81490926 7 2.75 C9.48980198 6.40689665 9.55310065 8.34170914 9 12.6875 C7.81232145 16.06781589 7.10174775 16.61966817 4 18.6875 C-1.05760286 19.34009392 -1.05760286 19.34009392 -4 18.6875 C-7.25932425 15.83559128 -8.73945496 13.93811619 -9.625 9.6875 C-8.49356637 4.25661855 -5.74629636 0.3809098 0 0 Z " fill="#D4D8E0" transform="translate(158,148.3125)"/>
<path d="M0 0 C0.75728394 0.00202423 1.51456787 0.00404846 2.2947998 0.00613403 C3.06787476 0.00517731 3.84094971 0.00422058 4.63745117 0.00323486 C6.27502524 0.00255313 7.91260199 0.00440697 9.5501709 0.00857544 C12.06536901 0.01392382 14.58038854 0.00863027 17.09558105 0.00222778 C18.68282103 0.00288857 20.2700609 0.00416973 21.8572998 0.00613403 C22.99322571 0.00309769 22.99322571 0.00309769 24.15209961 0 C29.46109849 0.02399522 29.46109849 0.02399522 30.5760498 1.13894653 C30.7010498 3.63894653 30.7010498 3.63894653 30.5760498 6.13894653 C29.5760498 7.13894653 29.5760498 7.13894653 26.24963379 7.25247192 C24.77379424 7.25231283 23.29794912 7.24661967 21.82214355 7.23660278 C21.04669693 7.23518784 20.27125031 7.23377289 19.4723053 7.23231506 C16.98601486 7.22669999 14.4998132 7.214145 12.0135498 7.20144653 C10.33191048 7.19643347 8.65026974 7.19187023 6.96862793 7.18777466 C2.83773414 7.17672566 -1.29309296 7.15945098 -5.4239502 7.13894653 C-5.80528318 5.14754093 -6.13720602 3.14615576 -6.4239502 1.13894653 C-4.66322436 -0.6217793 -2.34498729 0.0105987 0 0 Z " fill="#D1D7E0" transform="translate(208.4239501953125,212.86105346679688)"/>
<path d="M0 0 C0.67877197 0.00008057 1.35754395 0.00016113 2.05688477 0.00024414 C4.12667451 -0.00194046 6.1959298 -0.02008804 8.265625 -0.0390625 C10.21178711 -0.04196289 10.21178711 -0.04196289 12.19726562 -0.04492188 C13.39536865 -0.04903076 14.59347168 -0.05313965 15.82788086 -0.05737305 C18.70117188 0.18554688 18.70117188 0.18554688 20.70117188 2.18554688 C20.14561632 6.74110243 20.14561632 6.74110243 18.70117188 8.18554688 C16.55558361 8.27330293 14.40712766 8.29249906 12.25976562 8.28320312 C10.95458984 8.27998047 9.64941406 8.27675781 8.3046875 8.2734375 C6.91601498 8.26508089 5.5273431 8.25661593 4.13867188 8.24804688 C2.74609532 8.24303353 1.35351706 8.23847034 -0.0390625 8.234375 C-3.45902683 8.22254121 -6.87890657 8.20605568 -10.29882812 8.18554688 C-10.67946033 5.85946118 -11.01152757 3.52499423 -11.29882812 1.18554688 C-8.96166803 -1.15161322 -3.11049924 0.01392068 0 0 Z " fill="#D3D8E0" transform="translate(213.298828125,162.814453125)"/>
<path d="M0 0 C0.66067978 -0.00095673 1.32135956 -0.00191345 2.00205994 -0.00289917 C3.39826554 -0.00357966 4.79447431 -0.0017345 6.19067383 0.00244141 C8.33486989 0.00780007 10.47885728 0.00248771 12.62304688 -0.00390625 C13.97786505 -0.00324561 15.33268309 -0.00196475 16.6875 0 C18.54580444 0.00169189 18.54580444 0.00169189 20.44165039 0.00341797 C23.27734375 0.1328125 23.27734375 0.1328125 24.27734375 1.1328125 C24.40234375 3.6328125 24.40234375 3.6328125 24.27734375 6.1328125 C21.80246664 8.60768961 15.73653255 7.30618482 12.26757812 7.31835938 C11.54143311 7.31827881 10.81528809 7.31819824 10.06713867 7.31811523 C7.85250593 7.32030001 5.63837252 7.33844781 3.42382812 7.35742188 C2.02213713 7.36035606 0.62044375 7.36234069 -0.78125 7.36328125 C-2.06314209 7.36739014 -3.34503418 7.37149902 -4.66577148 7.37573242 C-7.72265625 7.1328125 -7.72265625 7.1328125 -9.72265625 5.1328125 C-9.47265625 3.0703125 -9.47265625 3.0703125 -8.72265625 1.1328125 C-5.81213425 -0.3224485 -3.24709214 0.00295363 0 0 Z " fill="#D0D6DE" transform="translate(237.72265625,79.8671875)"/>
<path d="M0 0 C1.11890625 0.00322266 2.2378125 0.00644531 3.390625 0.00976562 C5.06898438 -0.0144043 5.06898438 -0.0144043 6.78125 -0.0390625 C8.38226563 -0.0400293 8.38226563 -0.0400293 10.015625 -0.04101562 C10.99789063 -0.04399658 11.98015625 -0.04697754 12.9921875 -0.05004883 C14.17941406 0.13424683 14.17941406 0.13424683 15.390625 0.32226562 C17.390625 3.32226562 17.390625 3.32226562 17.078125 5.44726562 C16.390625 7.32226562 16.390625 7.32226562 15.390625 8.32226562 C13.53692889 8.40964208 11.67994959 8.42924716 9.82421875 8.41992188 C8.69951172 8.41669922 7.57480469 8.41347656 6.41601562 8.41015625 C5.23201172 8.40177734 4.04800781 8.39339844 2.828125 8.38476562 C1.64025391 8.38025391 0.45238281 8.37574219 -0.77148438 8.37109375 C-3.71749726 8.35926237 -6.66341181 8.34277849 -9.609375 8.32226562 C-10.234375 5.44726562 -10.234375 5.44726562 -10.609375 2.32226562 C-7.50709763 -0.78001175 -4.23660161 0.02814168 0 0 Z " fill="#D0D6DE" transform="translate(246.609375,95.677734375)"/>
<path d="M0 0 C1.93945312 -0.37231445 1.93945312 -0.37231445 4.28125 -0.36328125 C5.54388672 -0.36231445 5.54388672 -0.36231445 6.83203125 -0.36132812 C7.71246094 -0.34521484 8.59289062 -0.32910156 9.5 -0.3125 C10.38042969 -0.31572266 11.26085937 -0.31894531 12.16796875 -0.32226562 C18.73302968 -0.26697032 18.73302968 -0.26697032 21 2 C20.44444444 6.55555556 20.44444444 6.55555556 19 8 C17.58429877 8.08651611 16.164405 8.10704904 14.74609375 8.09765625 C13.89208984 8.09443359 13.03808594 8.09121094 12.15820312 8.08789062 C11.26037109 8.07951172 10.36253906 8.07113281 9.4375 8.0625 C8.53580078 8.05798828 7.63410156 8.05347656 6.70507812 8.04882812 C4.46998686 8.03700225 2.23502563 8.0205222 0 8 C-1.125 5.6875 -1.125 5.6875 -2 3 C-1.34 2.01 -0.68 1.02 0 0 Z " fill="#D1D7E0" transform="translate(224,229)"/>
<path d="M0 0 C0.88494141 -0.01224609 1.76988281 -0.02449219 2.68164062 -0.03710938 C3.52791016 -0.03904297 4.37417969 -0.04097656 5.24609375 -0.04296875 C6.02525146 -0.04707764 6.80440918 -0.05118652 7.60717773 -0.05541992 C9.5625 0.1875 9.5625 0.1875 11.5625 2.1875 C11.75 4.75 11.75 4.75 11.5625 7.1875 C10.5625 8.1875 10.5625 8.1875 8.61303711 8.30102539 C7.7803833 8.29578857 6.94772949 8.29055176 6.08984375 8.28515625 C5.19072266 8.28193359 4.29160156 8.27871094 3.36523438 8.27539062 C2.41970703 8.26701172 1.47417969 8.25863281 0.5 8.25 C-0.44939453 8.24548828 -1.39878906 8.24097656 -2.37695312 8.23632812 C-4.73053065 8.2245011 -7.08398477 8.20802025 -9.4375 8.1875 C-9.81813221 5.8614143 -10.15019945 3.52694736 -10.4375 1.1875 C-8.1977852 -1.0522148 -3.00852512 0.00218167 0 0 Z " fill="#D5DAE0" transform="translate(254.4375,162.8125)"/>
<path d="M0 0 C0.73734375 0.00773438 1.4746875 0.01546875 2.234375 0.0234375 C3.34039062 0.01183594 3.34039062 0.01183594 4.46875 0 C9.9810554 0.0201179 9.9810554 0.0201179 12.234375 2.2734375 C12.421875 4.8359375 12.421875 4.8359375 12.234375 7.2734375 C11.234375 8.2734375 11.234375 8.2734375 9.46850586 8.38696289 C8.71964111 8.38172607 7.97077637 8.37648926 7.19921875 8.37109375 C6.39033203 8.36787109 5.58144531 8.36464844 4.74804688 8.36132812 C3.89791016 8.35294922 3.04777344 8.34457031 2.171875 8.3359375 C1.31787109 8.33142578 0.46386719 8.32691406 -0.41601562 8.32226562 C-2.53258163 8.31044123 -4.64911185 8.29250519 -6.765625 8.2734375 C-7.390625 5.3984375 -7.390625 5.3984375 -7.765625 2.2734375 C-5.20613501 -0.28605249 -3.49355305 0.01275019 0 0 Z " fill="#D1D6DE" transform="translate(209.765625,195.7265625)"/>
<path d="M0 0 C8.6838625 -0.06947174 17.36762954 -0.1227967 26.05170918 -0.15543652 C30.08397033 -0.17110102 34.11604153 -0.1923533 38.14819336 -0.22631836 C42.0385392 -0.25888429 45.9287022 -0.27684711 49.81917381 -0.28463173 C51.30437283 -0.29018026 52.7895617 -0.30101511 54.274683 -0.31719017 C56.35302072 -0.33892851 58.43060032 -0.34196856 60.5090332 -0.34057617 C61.69261917 -0.34723801 62.87620514 -0.35389984 64.09565735 -0.36076355 C67 0 67 0 68.92131042 1.38847351 C70 3 70 3 69.75 5.125 C69 7 69 7 68 8 C65.26105915 8.08858646 62.5474673 8.11523479 59.80859375 8.09765625 C58.98875504 8.0962413 58.16891632 8.09482635 57.32423401 8.09336853 C54.69528618 8.08775289 52.06642227 8.07519779 49.4375 8.0625 C47.65950643 8.05748701 45.88151154 8.05292376 44.10351562 8.04882812 C39.73564455 8.03777839 35.36783652 8.02050331 31 8 C31 7.67 31 7.34 31 7 C46.345 6.505 46.345 6.505 62 6 C62.33 4.35 62.66 2.7 63 1 C42.21 1 21.42 1 0 1 C0 0.67 0 0.34 0 0 Z " fill="#B543D3" transform="translate(157,245)"/>
<path d="M0 0 C1.65 0 3.3 0 5 0 C5 1.98 5 3.96 5 6 C3.2925002 4.71937515 1.62626404 3.38232443 0 2 C0 1.34 0 0.68 0 0 Z " fill="#A528C5" transform="translate(172,263)"/>
<path d="M0 0 C0.99 0.33 1.98 0.66 3 1 C2.09972412 2.03531726 1.17906965 3.05294165 0.25 4.0625 C-0.51570313 4.91521484 -0.51570313 4.91521484 -1.296875 5.78515625 C-3 7 -3 7 -5.203125 6.68359375 C-5.79609375 6.45800781 -6.3890625 6.23242188 -7 6 C-6.01 6 -5.02 6 -4 6 C-3.34 4.68 -2.68 3.36 -2 2 C-1.34 2 -0.68 2 0 2 C0 1.34 0 0.68 0 0 Z " fill="#B348D8" transform="translate(55,186)"/>
<path d="M0 0 C1.65 0 3.3 0 5 0 C4.67 1.32 4.34 2.64 4 4 C2.35 4 0.7 4 -1 4 C-0.67 2.68 -0.34 1.36 0 0 Z " fill="#9D2DC0" transform="translate(232,116)"/>
</svg>
